<?xml version="1.0" standalone="no"?><svg xmlns="http://www.w3.org/2000/svg" viewBox="0 0 1440 320"><path fill="#004aad" fill-opacity="1" d="M0,32L40,58.7C80,85,160,139,240,144C320,149,400,107,480,101.3C560,96,640,128,720,122.7C800,117,880,75,960,101.3C1040,128,1120,224,1200,224C1280,224,1360,128,1400,80L1440,32L1440,320L1400,320C1360,320,1280,320,1200,320C1120,320,1040,320,960,320C880,320,800,320,720,320C640,320,560,320,480,320C400,320,320,320,240,320C160,320,80,320,40,320L0,320Z"></path></svg>